<?xml version="1.0" encoding="UTF-8" standalone="no"?>
<svg
   xmlns:dc="http://purl.org/dc/elements/1.1/"
   xmlns:cc="http://creativecommons.org/ns#"
   xmlns:rdf="http://www.w3.org/1999/02/22-rdf-syntax-ns#"
   xmlns:svg="http://www.w3.org/2000/svg"
   xmlns="http://www.w3.org/2000/svg"
   xmlns:sodipodi="http://sodipodi.sourceforge.net/DTD/sodipodi-0.dtd"
   xmlns:inkscape="http://www.inkscape.org/namespaces/inkscape"
   id="SVGRoot"
   version="1.1"
   viewBox="0 0 50.0 50.0"
   height="50.0px"
   width="50.0px"
   inkscape:version="1.0 (4035a4fb49, 2020-05-01)"
   sodipodi:docname="user.svg">
  <style
     id="style2699" />
  <defs
     id="defs2111" />
  <sodipodi:namedview
     id="base"
     pagecolor="#ffffff"
     bordercolor="#666666"
     borderopacity="1.0"
     inkscape:pageopacity="0.0"
     inkscape:pageshadow="2"
     inkscape:zoom="5.6"
     inkscape:cx="5.4199133"
     inkscape:cy="33.790687"
     inkscape:document-units="px"
     inkscape:current-layer="layer2"
     inkscape:document-rotation="0"
     showgrid="true"
     inkscape:window-width="1920"
     inkscape:window-height="1027"
     inkscape:window-x="-8"
     inkscape:window-y="-8"
     inkscape:window-maximized="1"
     inkscape:snap-global="false">
    <inkscape:grid
       id="grid2682"
       type="xygrid" />
  </sodipodi:namedview>
  <metadata
     id="metadata2114">
    <rdf:RDF>
      <cc:Work
         rdf:about="">
        <dc:format>image/svg+xml</dc:format>
        <dc:type
           rdf:resource="http://purl.org/dc/dcmitype/StillImage" />
        <dc:title />
      </cc:Work>
    </rdf:RDF>
  </metadata>
  <g
     inkscape:groupmode="layer"
     id="layer2"
     inkscape:label="bg"
     style="display:none">
    <rect
       style="fill:#241c1c;stroke-width:1.5"
       id="rect2741"
       width="50.357143"
       height="50.714287"
       x="0"
       y="-0.17857143" />
  </g>
  <g
     inkscape:label="Layer 1"
     inkscape:groupmode="layer"
     id="layer1">
    <g
       transform="matrix(1.0488291,0,0,1.0488291,-2.135551,9.3668509)"
       id="g873">
      <circle
         cy="17.04435"
         cx="25.872318"
         id="circle1449"
         style="fill:#ffffff;fill-opacity:0.976401;stroke:none;stroke-width:0.102703"
         r="12.321988" />
      <path
         id="path1451"
         style="fill:#ffffff;fill-opacity:0.976401;stroke:none;stroke-width:0.185843"
         d="m 14.724609,32.417689 a 22.296934,22.296934 0 0 0 -3.615234,6.261719 h 29.527344 a 22.296934,22.296934 0 0 0 -3.615235,-6.261719 22.296934,22.296934 0 0 0 -22.296875,0 z" />
      <ellipse
         ry="7.8584681"
         rx="4.9920568"
         cy="16.730478"
         cx="7.1303077"
         id="path2150"
         style="fill:#fafbfc;fill-opacity:1;stroke:none;stroke-width:2.14192;stroke-miterlimit:4;stroke-dasharray:none;stroke-opacity:1" />
      <path
         d="M 15.585591,-6.0820104 A 20.799151,20.799151 0 0 0 5.1875356,11.930705 h 4.4099185 a 16.389288,16.389288 0 0 1 8.1930959,-14.1960194 16.389288,16.389288 0 0 1 16.389821,0 16.389288,16.389288 0 0 1 8.196725,14.1960194 h 4.409919 A 20.799151,20.799151 0 0 0 36.38533,-6.0820104 a 20.799151,20.799151 0 0 0 -20.799739,0 z"
         style="fill:#fafbfc;fill-opacity:1;stroke:none;stroke-width:0.173359"
         id="circle2152" />
      <ellipse
         style="fill:#fafbfc;fill-opacity:1;stroke:none;stroke-width:2.14192;stroke-miterlimit:4;stroke-dasharray:none;stroke-opacity:1"
         id="ellipse2159"
         cx="44.614159"
         cy="16.730478"
         rx="4.9920568"
         ry="7.8584681" />
    </g>
  </g>
</svg>
